STARTFONT 2.1
COMMENT  
COMMENT  Copyright 1991 X Consortium
COMMENT  
COMMENT  WARNING:  This bdf file was generated from a font server using
COMMENT  fstobdf.  The resulting font is subject to the same copyright,
COMMENT  license, and trademark restrictions as the original font.  The
COMMENT  authors and distributors of fstobdf disclaim all liability for
COMMENT  misuse of the program or its output.
COMMENT  
FONT -Misc-Fixed-Medium-R-Normal--7-70-75-75-C-50-ISO8859-1
SIZE 7 75 75
FONTBOUNDINGBOX 6 7 0 -1
STARTPROPERTIES 26
FONTNAME_REGISTRY ""
FOUNDRY "Misc"
FAMILY_NAME "Fixed"
WEIGHT_NAME "Medium"
SLANT "R"
SETWIDTH_NAME "Normal"
ADD_STYLE_NAME ""
PIXEL_SIZE 7
POINT_SIZE 70
RESOLUTION_X 75
RESOLUTION_Y 75
SPACING "C"
AVERAGE_WIDTH 50
CHARSET_REGISTRY "ISO8859"
CHARSET_ENCODING "1"
UNDERLINE_POSITION 0
DESTINATION 1
COPYRIGHT "Copyright 1991 X Consortium"
WEIGHT 10
RESOLUTION 103
X_HEIGHT 6
QUAD_WIDTH 5
DEFAULT_CHAR 0
FONT_ASCENT 6
FONT_DESCENT 1
ENDPROPERTIES
CHARS 224

STARTCHAR uni3CAD
ENCODING 97
BBX 16 16 0 -2
BITMAP
0804
290E
2970
4A10
1410
221C
4170
0010
2210
2A9E
B770
6210
2212
5212
4512
888E
ENDCHAR

STARTCHAR uni3CAC
ENCODING 98
BBX 16 16 0 -1
BITMAP
2808
241C
7EE0
C820
4820
7E3C
48E0
4820
7E20
483C
48E0
7E22
4022
AA22
AA1E
0000
ENDCHAR

STARTCHAR uni75C5
ENCODING 99
BBX 16 16 0 -2
BITMAP
0080
0040
1FFE
1000
9000
57FC
5040
1040
37FC
5444
94A4
1514
2614
2404
4414
8408
ENDCHAR

STARTCHAR uni75C5
ENCODING 100
BBX 15 7 0 -2
BITMAP
0080
0080
0080
0080
0080
0080
ff80
ENDCHAR

ENDFONT
