STARTFONT 2.1
COMMENT  
COMMENT  Copyright 1991 X Consortium
COMMENT  
COMMENT  WARNING:  This bdf file was generated from a font server using
COMMENT  fstobdf.  The resulting font is subject to the same copyright,
COMMENT  license, and trademark restrictions as the original font.  The
COMMENT  authors and distributors of fstobdf disclaim all liability for
COMMENT  misuse of the program or its output.
COMMENT  
FONT -Misc-Fixed-Medium-R-Normal--7-70-75-75-C-50-ISO8859-1
SIZE 7 75 75
FONTBOUNDINGBOX 6 7 0 -1
STARTPROPERTIES 26
FONTNAME_REGISTRY ""
FOUNDRY "Misc"
FAMILY_NAME "Fixed"
WEIGHT_NAME "Medium"
SLANT "R"
SETWIDTH_NAME "Normal"
ADD_STYLE_NAME ""
PIXEL_SIZE 7
POINT_SIZE 70
RESOLUTION_X 75
RESOLUTION_Y 75
SPACING "C"
AVERAGE_WIDTH 50
CHARSET_REGISTRY "ISO8859"
CHARSET_ENCODING "1"
UNDERLINE_POSITION 0
DESTINATION 1
COPYRIGHT "Copyright 1991 X Consortium"
WEIGHT 10
RESOLUTION 103
X_HEIGHT 6
QUAD_WIDTH 5
DEFAULT_CHAR 0
FONT_ASCENT 6
FONT_DESCENT 1
ENDPROPERTIES
CHARS 4

STARTCHAR uni3CAD
ENCODING 97
BBX 16 16 0 -2
BITMAP
0804
290E
2970
4A10
1410
221C
4170
0010
2210
2A9E
B770
6210
2212
5212
4512
888E
ENDCHAR

STARTCHAR uni3CAC
ENCODING 98
BBX 23 23 0 -4
BITMAP
0E0000
0C3FFE
0C00C0
0C0080
0C0180
0C110C
0CDFFE
7FFB6C
0CDB6C
0CDB6C
0CDB6C
2CDB6C
1CDB6C
0CDB6C
0EDB6C
0FDB6C
0DDB6C
18DB6C
18DA5E
30D00A
20C002
40FFFE
807FFE
ENDCHAR

STARTCHAR uni75C5
ENCODING 99
BBX 23 22 0 -4
BITMAP
38800C
30FFFE
31800C
3380C8
333FE0
300000
340030
FEFFF8
300E80
301C8C
30329E
306770
318F40
3019E0
3633A0
FC67B0
718D98
40199C
00318E
00C38E
001F04
000600
ENDCHAR

STARTCHAR uni75C5
ENCODING 100
BBX 5 8 0 -4
BITMAP
ff
08
08
f8
f8
08
08
ff
ENDCHAR


ENDFONT
