<?xml version="1.0" encoding="UTF-8" standalone="no"?>
<!-- Created with Inkscape (http://www.inkscape.org/) -->

<svg
   xmlns:dc="http://purl.org/dc/elements/1.1/"
   xmlns:cc="http://creativecommons.org/ns#"
   xmlns:rdf="http://www.w3.org/1999/02/22-rdf-syntax-ns#"
   xmlns:svg="http://www.w3.org/2000/svg"
   xmlns="http://www.w3.org/2000/svg"
   xmlns:sodipodi="http://sodipodi.sourceforge.net/DTD/sodipodi-0.dtd"
   xmlns:inkscape="http://www.inkscape.org/namespaces/inkscape"
   id="svg2837"
   version="1.1"
   inkscape:version="0.47pre4 r22446"
   width="743.75"
   height="1052.5"
   xml:space="preserve"
   sodipodi:docname="logo.svg"><metadata
     id="metadata2843"><rdf:RDF><cc:Work
         rdf:about=""><dc:format>image/svg+xml</dc:format><dc:type
           rdf:resource="http://purl.org/dc/dcmitype/StillImage" /><dc:title /></cc:Work></rdf:RDF></metadata><defs
     id="defs2841"><inkscape:perspective
       sodipodi:type="inkscape:persp3d"
       inkscape:vp_x="0 : 0.5 : 1"
       inkscape:vp_y="0 : 1000 : 0"
       inkscape:vp_z="1 : 0.5 : 1"
       inkscape:persp3d-origin="0.5 : 0.33333333 : 1"
       id="perspective2845" /></defs><sodipodi:namedview
     pagecolor="#ffffff"
     bordercolor="#666666"
     borderopacity="1"
     objecttolerance="10"
     gridtolerance="10"
     guidetolerance="10"
     inkscape:pageopacity="0"
     inkscape:pageshadow="2"
     inkscape:window-width="1280"
     inkscape:window-height="950"
     id="namedview2839"
     showgrid="false"
     inkscape:zoom="1.2684253"
     inkscape:cx="357.94219"
     inkscape:cy="1056.652"
     inkscape:window-x="0"
     inkscape:window-y="25"
     inkscape:window-maximized="1"
     inkscape:current-layer="g2847" /><g
     id="g2847"
     inkscape:groupmode="layer"
     inkscape:label="ink_ext_XXXXXX"
     transform="matrix(1.25,0,0,-1.25,0,1052.5)"><g
       id="g2849"
       transform="matrix(0.23607879,0,0,0.23607879,-395.86166,-584.43891)"><path
         d="m 2912.16,5437.1 c 3.45,-0.39 6.86,-0.73 10.24,-1.05 3.39,0.32 6.8,0.66 10.24,1.05 l -20.48,0"
         style="fill:#512c12;fill-opacity:1;fill-rule:nonzero;stroke:none"
         id="path2851" /><path
         d="m 3241.56,5532.5 c 0,0 -99.51,-116.97 -319.16,-96.45 -219.65,-20.52 -319.16,96.45 -319.16,96.45 75.6,-221.4 275.4,-156.6 275.4,-156.6 27,-475.2 -189,-567.01 -189,-567.01 0,0 241.65,-156.59 465.52,0 0,0 -216,91.81 -189,567.01 0,0 199.8,-64.8 275.4,156.6"
         style="fill:#512c12;fill-opacity:1;fill-rule:nonzero;stroke:none"
         id="path2853" /><path
         d="m 3211.41,4785.5 c 0,0 -128.52,-72.91 -218.38,-78.89 0,0 -2.95,1.94 -4.8,-0.31 -0.01,0 -0.01,0 -0.02,0 0,0 -0.02,-0.04 -0.06,-0.09 -18.88,-22.93 -36.26,-31.01 -51.12,-31.45 -14.87,0.44 -32.24,8.52 -51.14,31.45 -0.03,0.06 -0.05,0.09 -0.05,0.09 -0.01,0 -0.02,0 -0.02,0 -1.86,2.25 -4.8,0.31 -4.8,0.31 -89.86,5.98 -218.38,78.89 -218.38,78.89 0,0 -378,-162 -208.8,-450 0,0 226.8,54 320.4,-28.8 0,0 28.45,-63.85 162.79,-54.18 134.33,-9.67 162.78,54.18 162.78,54.18 93.6,82.8 320.4,28.8 320.4,28.8 169.2,288 -208.8,450 -208.8,450"
         style="fill:#512c12;fill-opacity:1;fill-rule:nonzero;stroke:none"
         id="path2855" /><path
         d="m 2425.04,4285.1 c 0,0 255.6,72 331.2,-39.6 0,0 57.6,-36 129.6,-32.4 0,0 28.8,0 25.2,-46.8 l 0,-1008 c 0,0 -540,-118.8 -493.2,763.2 l 7.2,363.6"
         style="fill:#512c12;fill-opacity:1;fill-rule:nonzero;stroke:none"
         id="path2857" /><path
         d="m 3440.23,4285.1 c 0,0 -255.59,72 -331.19,-39.6 0,0 -57.6,-36 -129.6,-32.4 0,0 -28.8,0 -25.2,-46.8 l 0,-1008 c 0,0 540,-118.8 493.2,763.2 l -7.21,363.6"
         style="fill:#512c12;fill-opacity:1;fill-rule:nonzero;stroke:none"
         id="path2859" /><path
         d="m 2391.68,4591.91 c 0,0 -87.48,-15.88 -145.62,43.2 0,0 4.78,43.08 -53.06,28.73 0,0 -106.39,-56.2 -35.59,-106.75 0,0 51.83,-72.51 217.73,-68.32 0,0 -9.43,64.2 16.54,103.14"
         style="fill:#512c12;fill-opacity:1;fill-rule:nonzero;stroke:none"
         id="path2861" /><path
         d="m 2128.17,4632.52 c 0,0 21.67,54.45 84.5,56.82 0,0 16.43,308.6 143.72,434.07 0,0 38.03,25.57 -39,44.32 0,0 -53,10.39 -72.19,43.49 0,0 -26.04,-20.58 7.28,-56.45 0,0 17.05,-25.35 -24.51,-50.22 0,0 -30.48,31.65 -74.88,11 0,0 60.21,-48.48 39.99,-114.23 0,0 -5.39,-64.97 -31.58,-48.84 0,0 -18.43,18.29 -38.86,7.62 0,0 64.43,-45.64 25.86,-111.45 0,0 -73.54,-150.68 -20.33,-216.13"
         style="fill:#512c12;fill-opacity:1;fill-rule:nonzero;stroke:none"
         id="path2863" /><path
         d="m 2282.21,5137.94 c 0,0 -149.92,-297.12 -127.52,-426.24 0,0 62.98,321.49 157.17,427.77 l -29.65,-1.53"
         style="fill:#ffffff;fill-opacity:1;fill-rule:nonzero;stroke:none"
         id="path2865" /><path
         d="m 2356.87,5182.01 c 0,0 -59.73,107.08 26.16,170.96 0,0 10.52,16.28 -13.52,24.66 0,0 1.72,102.38 85.12,78.7 0,0 -89.16,50.49 -107.77,-63.26 0,0 -35,102.24 52.56,99.76 0,0 -112.37,25.68 -75.83,-106.21 0,0 -92.34,-40.6 33.28,-204.61"
         style="fill:#512c12;fill-opacity:1;fill-rule:nonzero;stroke:none"
         id="path2867" /><path
         d="m 2386.78,4364.21 c 0,0 -83.95,27.9 -137.34,1.66 0,0 43.67,-29.78 9.58,-72.69 0,0 97.8,0.77 113.93,-59.74 0,0 -24,66.32 27.14,79.63 0,0 -35.79,23.98 -13.31,51.14"
         style="fill:#512c12;fill-opacity:1;fill-rule:nonzero;stroke:none"
         id="path2869" /><path
         d="m 2216.29,4353.87 c 0,0 -182.42,-283.52 -327.81,-302.67 l 48.15,-3.92 c 0,0 66.65,-33.77 93.58,-91.72 0,0 -42.73,60.69 -9.39,99.3 33.34,38.6 -1.5,-8.62 -1.5,-8.62 0,0 181.45,141.63 205.79,230.62 0,0 45.7,58.66 -8.82,77.01"
         style="fill:#512c12;fill-opacity:1;fill-rule:nonzero;stroke:none"
         id="path2871" /><path
         d="m 1914.16,4020.11 c 0,0 -51.9,-17.63 -19.28,-85.45 0,0 -193.72,-41.82 -180.02,-141.87 0,0 -6.38,14.42 29.03,39.35 0,0 -4.49,-25.85 26.99,-49.08 0,0 -19.86,38.97 15.54,63.89 0,0 -0.18,-26.6 34.29,-32.59 0,0 -60.53,85.99 108.47,87.71 0,0 -47.11,52.58 21.51,98.37 0,0 6.56,12.18 -36.53,19.67"
         style="fill:#512c12;fill-opacity:1;fill-rule:nonzero;stroke:none"
         id="path2873" /><path
         d="m 3483.22,4364.21 c 0,0 83.95,27.9 137.34,1.66 0,0 -43.67,-29.78 -9.58,-72.69 0,0 -97.8,0.77 -113.93,-59.74 0,0 24,66.32 -27.14,79.63 0,0 35.79,23.98 13.31,51.14"
         style="fill:#512c12;fill-opacity:1;fill-rule:nonzero;stroke:none"
         id="path2875" /><path
         d="m 3653.71,4353.87 c 0,0 182.42,-283.52 327.81,-302.67 l -48.15,-3.92 c 0,0 -66.65,-33.77 -93.58,-91.72 0,0 42.73,60.69 9.39,99.3 -33.34,38.6 1.5,-8.62 1.5,-8.62 0,0 -181.45,141.63 -205.79,230.62 0,0 -45.7,58.66 8.82,77.01"
         style="fill:#512c12;fill-opacity:1;fill-rule:nonzero;stroke:none"
         id="path2877" /><path
         d="m 3955.84,4020.11 c 0,0 51.9,-17.63 19.28,-85.45 0,0 193.72,-41.82 180.02,-141.87 0,0 6.38,14.42 -29.03,39.35 0,0 4.49,-25.85 -26.99,-49.08 0,0 19.86,38.97 -15.54,63.89 0,0 0.18,-26.6 -34.29,-32.59 0,0 60.53,85.99 -108.47,87.71 0,0 47.11,52.58 -21.51,98.37 0,0 -6.56,12.18 36.53,19.67"
         style="fill:#512c12;fill-opacity:1;fill-rule:nonzero;stroke:none"
         id="path2879" /><path
         d="m 2365.64,3820.7 c 0,0 -64.8,32.4 -151.2,-10.8 0,0 81,-43.2 37.8,-108 0,0 81,-21.6 124.2,-37.8 0,0 -10.8,97.2 -10.8,156.6"
         style="fill:#512c12;fill-opacity:1;fill-rule:nonzero;stroke:none"
         id="path2881" /><path
         d="m 2187.44,3788.3 c 0,0 -124.2,-16.2 -32.4,-259.2 0,0 39.6,-162 -64.8,-226.8 0,0 32.4,-5.4 59.4,27 0,0 0,-59.4 70.2,-70.2 0,0 -54,32.4 -16.2,124.2 0,0 59.4,356.4 -16.2,405"
         style="fill:#512c12;fill-opacity:1;fill-rule:nonzero;stroke:none"
         id="path2883" /><path
         d="m 2117.24,3264.5 c 0,0 -75.6,-183.6 124.2,-221.39 0,0 -21.6,-75.61 27,-70.2 0,0 -43.2,16.19 0,70.2 0,0 -5.4,-43.21 54,-27 0,0 -64.8,0 -48.6,48.59 0,0 -189,-5.4 -113.4,189.01 l -21.6,26.99 -21.6,-16.2"
         style="fill:#512c12;fill-opacity:1;fill-rule:nonzero;stroke:none"
         id="path2885" /><path
         d="m 3473.6,4591.91 c 0,0 87.49,-15.88 145.61,43.2 0,0 -4.77,43.08 53.06,28.73 0,0 106.39,-56.2 35.59,-106.75 0,0 -51.82,-72.51 -217.72,-68.32 0,0 9.43,64.2 -16.54,103.14"
         style="fill:#512c12;fill-opacity:1;fill-rule:nonzero;stroke:none"
         id="path2887" /><path
         d="m 3737.11,4632.52 c 0,0 -21.68,54.45 -84.5,56.82 0,0 -16.44,308.6 -143.73,434.07 0,0 -38.02,25.57 39.01,44.32 0,0 52.99,10.39 72.18,43.49 0,0 26.04,-20.58 -7.28,-56.45 0,0 -17.05,-25.35 24.51,-50.22 0,0 30.48,31.65 74.88,11 0,0 -60.2,-48.48 -39.98,-114.23 0,0 5.39,-64.97 31.57,-48.84 0,0 18.43,18.29 38.87,7.62 0,0 -64.43,-45.64 -25.86,-111.45 0,0 73.54,-150.68 20.33,-216.13"
         style="fill:#512c12;fill-opacity:1;fill-rule:nonzero;stroke:none"
         id="path2889" /><path
         d="m 3583.07,5137.94 c 0,0 149.92,-297.12 127.52,-426.24 0,0 -62.98,321.49 -157.17,427.77 l 29.65,-1.53"
         style="fill:#ffffff;fill-opacity:1;fill-rule:nonzero;stroke:none"
         id="path2891" /><path
         d="m 3508.4,5182.01 c 0,0 59.74,107.08 -26.15,170.96 0,0 -10.53,16.28 13.51,24.66 0,0 -1.71,102.38 -85.12,78.7 0,0 89.16,50.49 107.78,-63.26 0,0 34.99,102.24 -52.56,99.76 0,0 112.36,25.68 75.83,-106.21 0,0 92.33,-40.6 -33.29,-204.61"
         style="fill:#512c12;fill-opacity:1;fill-rule:nonzero;stroke:none"
         id="path2893" /><path
         d="m 3499.63,3820.7 c 0,0 64.8,32.4 151.21,-10.8 0,0 -81,-43.2 -37.8,-108 0,0 -81,-21.6 -124.2,-37.8 0,0 10.79,97.2 10.79,156.6"
         style="fill:#512c12;fill-opacity:1;fill-rule:nonzero;stroke:none"
         id="path2895" /><path
         d="m 3677.84,3788.3 c 0,0 124.2,-16.2 32.39,-259.2 0,0 -39.59,-162 64.81,-226.8 0,0 -32.4,-5.4 -59.4,27 0,0 0,-59.4 -70.21,-70.2 0,0 54,32.4 16.21,124.2 0,0 -59.41,356.4 16.2,405"
         style="fill:#512c12;fill-opacity:1;fill-rule:nonzero;stroke:none"
         id="path2897" /><path
         d="m 3748.04,3264.5 c 0,0 75.59,-183.6 -124.21,-221.39 0,0 21.6,-75.61 -26.99,-70.2 0,0 43.2,16.19 0,70.2 0,0 5.39,-43.21 -54,-27 0,0 64.8,0 48.6,48.59 0,0 188.99,-5.4 113.4,189.01 l 21.6,26.99 21.6,-16.2"
         style="fill:#512c12;fill-opacity:1;fill-rule:nonzero;stroke:none"
         id="path2899" /><path
         d="m 3321.44,4256.3 c 0,0 91.8,-939.6 -259.21,-1031.4 0,0 388.81,-9 324,1015.2 l -64.79,16.2"
         style="fill:#ffffff;fill-opacity:1;fill-rule:nonzero;stroke:none"
         id="path2901" /><path
         d="m 3111.06,4205.68 c 0,0 -54,-48.61 -124.2,-27 l 16.2,-237.61 c 0,0 -10.8,145.81 64.8,178.21 0,0 59.4,-10.8 43.2,86.4"
         style="fill:#ffffff;fill-opacity:1;fill-rule:nonzero;stroke:none"
         id="path2903" /><path
         d="m 2747.01,4205.68 c 0,0 54,-48.61 124.2,-27 l -16.19,-237.61 c 0,0 10.79,145.81 -64.81,178.21 0,0 -59.4,-10.8 -43.2,86.4"
         style="fill:#ffffff;fill-opacity:1;fill-rule:nonzero;stroke:none"
         id="path2905" /><path
         d="m 3296.23,4252.7 c 0,0 82.81,-892.8 -241.19,-989.99 0,0 320.39,82.79 216,993.59 l 25.19,-3.6"
         style="fill:#ffffff;fill-opacity:1;fill-rule:nonzero;stroke:none"
         id="path2907" /></g></g></svg>