<?xml version="1.0" encoding="UTF-8" standalone="no"?>
<!-- Created with Inkscape (http://www.inkscape.org/) -->

<svg
   xmlns:sketch="http://www.bohemiancoding.com/sketch/ns"
   xmlns:dc="http://purl.org/dc/elements/1.1/"
   xmlns:cc="http://creativecommons.org/ns#"
   xmlns:rdf="http://www.w3.org/1999/02/22-rdf-syntax-ns#"
   xmlns:svg="http://www.w3.org/2000/svg"
   xmlns="http://www.w3.org/2000/svg"
   xmlns:sodipodi="http://sodipodi.sourceforge.net/DTD/sodipodi-0.dtd"
   xmlns:inkscape="http://www.inkscape.org/namespaces/inkscape"
   width="512px"
   height="512px"
   viewBox="0 0 512 512"
   version="1.1"
   id="SVGRoot"
   inkscape:version="0.92.5 (2060ec1f9f, 2020-04-08)"
   sodipodi:docname="xboot-logo.svg">
  <defs
     id="defs21" />
  <sodipodi:namedview
     id="base"
     pagecolor="#ffffff"
     bordercolor="#666666"
     borderopacity="1.0"
     inkscape:pageopacity="0.0"
     inkscape:pageshadow="2"
     inkscape:zoom="1.4"
     inkscape:cx="169.62446"
     inkscape:cy="255.72171"
     inkscape:document-units="px"
     inkscape:current-layer="layer1"
     showgrid="false"
     inkscape:window-width="1848"
     inkscape:window-height="1016"
     inkscape:window-x="72"
     inkscape:window-y="27"
     inkscape:window-maximized="1" />
  <metadata
     id="metadata24">
    <rdf:RDF>
      <cc:Work
         rdf:about="">
        <dc:format>image/svg+xml</dc:format>
        <dc:type
           rdf:resource="http://purl.org/dc/dcmitype/StillImage" />
        <dc:title></dc:title>
      </cc:Work>
    </rdf:RDF>
  </metadata>
  <g
     inkscape:label="Layer 1"
     inkscape:groupmode="layer"
     id="layer1">
    <g
       id="Page-1"
       sketch:type="MSPage"
       transform="matrix(1.5802469,0,0,1.5802469,0,4.4e-6)"
       style="fill:none;fill-rule:evenodd;stroke:none;stroke-width:1">
      <g
         id="xboot-icon"
         sketch:type="MSLayerGroup">
        <path
           d="m 42,0 c -9e-6,5.3321764e-7 -42,42 -42,42 l 115,115 h 42 V 115 C 157,115 42.000009,-5.3321764e-7 42,0 Z"
           id="LT"
           sketch:type="MSShapeGroup"
           inkscape:connector-curvature="0"
           style="fill:#e93e30" />
        <path
           d="m 209,167 c -1e-5,0 -42,42 -42,42 l 115,115 h 42 v -42 c 0,0 -114.99999,-115 -115,-115 z"
           id="RB"
           sketch:type="MSShapeGroup"
           transform="rotate(180,245.5,245.5)"
           inkscape:connector-curvature="0"
           style="fill:#52b529" />
        <path
           d="m 42,167 c -9e-6,0 -42,42 -42,42 l 115,115 h 42 V 282 C 157,282 42.000009,167 42,167 Z"
           id="LB"
           sketch:type="MSShapeGroup"
           transform="matrix(1,0,0,-1,0,491)"
           inkscape:connector-curvature="0"
           style="fill:#f8c63d" />
        <path
           d="m 209,0 c -1e-5,5.3321764e-7 -42,42 -42,42 l 115,115 h 42 V 115 C 324,115 209.00001,-5.3321764e-7 209,0 Z"
           id="RT"
           sketch:type="MSShapeGroup"
           transform="matrix(-1,0,0,1,491,0)"
           inkscape:connector-curvature="0"
           style="fill:#377ef0" />
      </g>
    </g>
  </g>
</svg>
